<svg id="svg" version="1.1" width="400" height="400" viewBox="0 0 400 400" xmlns="http://www.w3.org/2000/svg" xmlns:xlink="http://www.w3.org/1999/xlink" ><g id="svgg"><path id="path0" d="M111.288 9.225 C 105.673 10.332,98.000 20.512,98.000 26.857 C 98.000 28.312,97.730 30.149,97.400 30.938 C 96.607 32.835,96.586 39.812,97.366 41.892 C 98.177 44.054,98.540 53.256,97.851 54.198 C 97.517 54.655,96.514 55.027,95.100 55.219 C 90.667 55.820,89.023 57.962,89.987 61.877 C 90.631 64.493,90.483 67.352,89.605 69.267 C 88.769 71.087,88.333 71.862,85.897 75.852 C 85.074 77.201,84.400 78.432,84.400 78.588 C 84.400 79.267,81.199 85.361,80.446 86.114 C 80.201 86.359,80.000 86.889,80.000 87.292 C 80.000 88.752,77.872 93.042,76.276 94.800 C 74.647 96.594,74.166 96.973,70.000 99.753 C 64.263 103.581,61.246 106.576,56.222 113.434 C 54.302 116.055,52.026 118.977,51.165 119.926 C 50.304 120.875,49.600 121.839,49.600 122.068 C 49.600 122.297,49.085 123.141,48.455 123.942 C 47.207 125.532,45.200 129.147,45.200 129.806 C 45.200 130.033,44.610 131.114,43.890 132.209 C 42.086 134.949,39.200 141.980,39.200 143.634 C 39.200 143.952,38.874 144.839,38.477 145.606 C 38.079 146.373,37.520 147.810,37.235 148.800 C 36.950 149.790,36.555 151.013,36.358 151.519 C 35.532 153.638,35.930 175.078,36.837 177.326 C 38.504 181.455,40.577 185.140,42.347 187.122 C 43.024 187.881,43.681 188.824,43.806 189.219 C 44.123 190.217,50.982 197.105,53.349 198.803 C 54.421 199.571,56.131 200.942,57.149 201.849 C 58.167 202.756,59.720 203.893,60.600 204.376 C 61.480 204.858,62.920 205.687,63.800 206.216 C 65.612 207.307,69.084 208.982,70.398 209.399 C 70.880 209.552,72.073 210.216,73.047 210.874 C 74.022 211.532,75.490 212.252,76.310 212.475 C 77.129 212.697,78.070 213.109,78.400 213.389 C 78.730 213.669,79.810 213.985,80.800 214.091 C 85.252 214.569,88.935 219.228,86.848 221.742 C 86.038 222.719,84.400 228.083,84.398 229.770 C 84.396 230.667,84.126 231.916,83.798 232.546 C 83.469 233.176,83.199 233.896,83.198 234.146 C 83.197 234.396,82.751 235.680,82.208 237.000 C 81.664 238.320,81.215 239.873,81.209 240.451 C 81.204 241.029,80.944 241.715,80.631 241.974 C 80.268 242.276,80.004 243.490,79.902 245.323 C 79.815 246.906,79.351 249.624,78.872 251.364 C 78.392 253.104,77.994 254.994,77.986 255.564 C 77.978 256.134,77.714 257.050,77.400 257.600 C 77.086 258.150,76.822 259.173,76.814 259.874 C 76.806 260.575,76.593 261.655,76.339 262.274 C 76.086 262.893,75.720 266.100,75.525 269.400 C 75.027 277.857,74.273 286.607,73.206 296.284 C 72.209 305.332,72.883 325.896,74.370 331.800 C 74.592 332.680,74.970 335.020,75.212 337.000 C 75.705 341.046,76.653 344.957,77.465 346.291 C 77.763 346.782,78.511 348.672,79.126 350.491 C 79.742 352.311,80.727 354.557,81.316 355.482 C 81.905 356.407,82.973 358.281,83.688 359.646 C 85.503 363.108,95.243 373.571,96.671 373.593 C 96.931 373.597,97.381 373.831,97.671 374.113 C 98.748 375.158,100.680 376.355,101.708 376.613 C 102.291 376.759,102.977 377.131,103.233 377.439 C 103.489 377.748,103.991 378.001,104.349 378.002 C 104.707 378.004,105.478 378.254,106.061 378.559 C 106.645 378.863,107.815 379.335,108.661 379.608 C 109.508 379.880,110.650 380.330,111.200 380.606 C 112.897 381.460,116.590 382.400,118.246 382.400 C 119.879 382.400,121.600 383.287,121.600 384.129 C 121.600 384.394,121.960 385.284,122.400 386.104 C 122.840 386.925,123.212 388.093,123.226 388.699 C 123.343 393.631,126.670 396.162,132.708 395.915 L 136.416 395.762 139.171 393.029 C 141.545 390.673,141.963 390.043,142.200 388.462 C 142.351 387.454,142.728 386.267,143.037 385.825 C 143.347 385.383,143.600 384.721,143.600 384.352 C 143.600 383.984,144.236 383.124,145.014 382.441 L 146.428 381.200 192.565 381.200 C 234.042 381.200,238.755 381.264,239.224 381.829 C 239.512 382.175,239.863 383.840,240.006 385.529 C 240.680 393.488,244.314 396.134,254.488 396.073 C 263.403 396.019,265.244 395.230,266.588 390.881 C 266.976 389.627,267.632 387.830,268.047 386.889 C 268.461 385.948,268.808 384.238,268.817 383.089 C 268.866 377.212,271.881 373.685,276.950 373.572 C 281.083 373.480,285.827 370.316,293.184 362.743 C 295.537 360.321,296.203 360.161,304.337 360.064 C 312.911 359.961,313.986 359.623,317.352 355.969 C 321.140 351.856,321.305 349.184,317.991 345.563 C 316.903 344.373,316.010 343.269,316.006 343.108 C 316.003 342.948,315.313 342.466,314.473 342.037 C 313.634 341.609,312.707 340.970,312.415 340.619 C 311.714 339.774,308.696 337.748,307.638 337.412 C 306.740 337.127,306.170 335.623,306.532 334.494 C 306.655 334.112,307.395 331.910,308.177 329.600 C 308.959 327.290,309.599 324.986,309.599 324.480 C 309.600 323.974,309.857 323.064,310.171 322.457 C 310.501 321.817,310.933 318.921,311.196 315.576 C 311.446 312.399,311.819 309.248,312.025 308.574 C 312.230 307.899,312.500 305.379,312.623 302.974 C 312.746 300.568,313.013 297.858,313.217 296.950 C 313.536 295.525,314.063 289.981,315.018 278.000 C 315.629 270.330,315.223 259.214,313.791 244.400 C 313.440 240.770,312.989 235.029,312.789 231.643 C 312.588 228.257,312.254 224.927,312.045 224.243 C 310.109 217.901,311.284 209.393,314.267 208.146 C 315.000 207.840,315.600 207.442,315.600 207.262 C 315.600 206.824,319.107 204.573,321.304 203.601 C 322.273 203.173,323.682 202.189,324.433 201.415 C 325.185 200.641,326.010 200.007,326.266 200.004 C 326.522 200.002,327.474 199.157,328.381 198.126 C 329.288 197.096,330.555 195.934,331.196 195.544 C 331.837 195.154,332.626 194.324,332.949 193.698 C 333.273 193.073,334.265 191.811,335.154 190.895 C 336.043 189.979,337.341 188.008,338.039 186.516 C 338.737 185.024,339.893 183.083,340.609 182.202 C 341.563 181.028,341.989 180.013,342.202 178.400 C 342.363 177.190,342.719 175.750,342.995 175.200 C 343.271 174.650,343.619 173.300,343.769 172.200 C 343.919 171.100,344.412 169.030,344.865 167.600 C 345.318 166.170,345.848 164.447,346.044 163.772 C 346.622 161.778,346.470 152.663,345.817 150.094 C 345.496 148.832,344.849 146.270,344.378 144.400 C 343.908 142.530,343.284 140.460,342.991 139.800 C 342.698 139.140,342.336 137.790,342.186 136.800 C 342.036 135.810,341.335 134.010,340.628 132.800 C 339.921 131.590,338.906 129.700,338.371 128.600 C 337.837 127.500,336.479 125.430,335.354 124.000 C 334.229 122.570,333.083 120.968,332.808 120.440 C 330.881 116.743,324.141 109.293,320.466 106.800 C 309.635 99.452,306.400 95.941,306.400 91.535 C 306.400 89.892,302.456 82.401,299.801 79.000 C 295.683 73.727,296.437 71.442,301.832 72.842 C 302.730 73.075,303.990 73.206,304.632 73.133 L 305.800 73.000 305.908 64.787 C 306.049 54.013,306.264 54.266,298.099 55.590 C 292.033 56.573,291.408 55.755,291.383 46.800 C 291.362 39.575,291.011 36.175,289.997 33.400 C 289.595 32.300,289.070 30.657,288.832 29.749 C 288.210 27.387,284.624 22.788,282.000 20.987 C 281.230 20.459,280.158 19.706,279.618 19.313 C 277.379 17.688,269.450 18.915,265.811 21.450 C 265.377 21.753,264.545 22.000,263.962 22.000 C 262.587 22.000,259.379 23.426,257.600 24.828 C 256.830 25.435,254.787 26.532,253.059 27.266 C 251.332 28.000,249.352 29.183,248.659 29.896 C 247.967 30.608,247.190 31.193,246.933 31.196 C 246.676 31.198,245.772 31.822,244.925 32.582 C 240.841 36.249,238.349 36.660,234.708 34.269 C 233.548 33.508,232.017 32.762,231.305 32.612 C 230.592 32.462,229.906 32.172,229.781 31.969 C 229.655 31.766,228.774 31.600,227.821 31.600 C 226.869 31.600,223.775 31.168,220.945 30.641 C 206.062 27.866,167.707 28.001,151.904 30.884 C 148.334 31.535,144.945 29.852,139.513 24.733 C 135.536 20.985,131.975 17.847,131.244 17.448 C 130.890 17.254,129.953 16.481,129.163 15.728 C 128.373 14.976,127.170 14.055,126.491 13.680 C 125.811 13.306,124.028 12.257,122.528 11.349 C 118.700 9.031,115.418 8.411,111.288 9.225 M122.132 18.625 C 123.150 19.193,125.583 21.156,127.539 22.986 C 129.495 24.816,131.470 26.432,131.928 26.577 C 132.386 26.722,133.128 27.437,133.578 28.165 C 134.028 28.893,135.117 29.988,135.998 30.599 C 136.879 31.209,137.600 31.834,137.600 31.987 C 137.600 32.140,138.545 32.872,139.700 33.614 C 140.855 34.356,141.857 35.097,141.926 35.259 C 141.995 35.422,142.715 35.768,143.526 36.028 C 144.337 36.288,145.270 36.725,145.600 36.998 C 146.326 37.600,157.914 37.172,160.800 36.437 C 163.471 35.756,216.564 36.004,217.260 36.700 C 217.535 36.975,218.388 37.200,219.156 37.200 C 221.050 37.200,225.119 37.989,226.660 38.655 C 227.354 38.955,228.188 39.200,228.515 39.200 C 228.841 39.200,229.624 39.469,230.254 39.798 C 230.884 40.126,231.780 40.396,232.245 40.398 C 233.054 40.400,235.879 42.357,236.482 43.333 C 237.100 44.333,240.111 43.826,242.139 42.381 C 243.205 41.622,245.019 40.460,246.170 39.800 C 247.320 39.140,248.878 38.016,249.631 37.302 C 250.384 36.588,251.166 36.003,251.369 36.002 C 251.571 36.001,252.021 35.747,252.369 35.438 C 253.026 34.853,255.592 33.469,261.759 30.372 C 271.757 25.350,277.692 24.888,280.399 28.918 C 281.168 30.063,282.003 31.180,282.254 31.400 C 282.505 31.620,282.837 32.520,282.991 33.400 C 283.145 34.280,283.416 35.180,283.593 35.400 C 284.002 35.910,284.299 54.048,283.908 54.649 C 283.708 54.956,280.957 55.106,275.209 55.124 L 266.803 55.150 266.560 54.185 C 266.211 52.793,267.343 49.828,268.930 47.973 C 269.683 47.093,270.402 45.744,270.527 44.974 C 270.652 44.205,271.317 42.384,272.005 40.927 C 274.930 34.737,271.525 34.852,266.344 41.118 C 263.078 45.069,262.431 46.122,262.173 47.906 C 262.022 48.948,261.727 50.017,261.516 50.281 C 261.306 50.546,261.133 51.579,261.133 52.578 C 261.133 54.867,259.538 55.590,255.400 55.177 C 254.960 55.134,221.582 55.036,181.227 54.961 C 119.158 54.846,107.768 54.739,107.296 54.268 C 106.990 53.961,106.638 52.920,106.514 51.955 C 106.391 50.990,106.066 49.750,105.792 49.200 C 102.516 42.627,102.537 30.126,105.834 23.938 C 106.145 23.354,106.400 22.624,106.400 22.316 C 106.400 20.774,110.446 17.014,112.400 16.740 C 114.449 16.453,120.260 17.578,122.132 18.625 M112.431 32.236 C 111.018 33.425,110.957 33.807,111.851 35.886 C 112.209 36.719,112.850 38.210,113.276 39.200 C 113.701 40.190,114.216 41.270,114.421 41.600 C 114.625 41.930,115.145 42.852,115.578 43.649 C 117.462 47.121,123.600 45.768,123.600 41.880 C 123.600 39.696,119.217 32.501,117.375 31.661 C 115.667 30.883,113.777 31.103,112.431 32.236 M288.591 74.938 C 289.914 76.174,293.600 81.391,293.600 82.029 C 293.600 82.206,294.350 83.217,295.267 84.276 C 296.184 85.334,297.374 87.190,297.911 88.400 C 299.819 92.694,300.474 93.998,300.835 94.221 C 301.448 94.601,301.244 96.346,300.389 98.022 C 299.429 99.904,299.738 100.829,301.585 101.594 C 302.253 101.871,302.800 102.226,302.800 102.384 C 302.800 102.542,303.234 102.869,303.764 103.111 C 304.763 103.566,308.029 105.863,309.366 107.051 C 309.787 107.426,311.299 108.615,312.725 109.695 C 318.396 113.987,326.072 121.958,329.024 126.620 C 329.435 127.269,330.352 128.526,331.063 129.414 C 331.774 130.301,332.835 132.371,333.422 134.014 C 334.009 135.656,334.732 137.276,335.028 137.614 C 335.325 137.951,336.049 139.301,336.638 140.614 L 337.708 143.000 337.692 157.200 C 337.675 172.446,337.379 174.932,335.254 177.645 C 334.843 178.170,334.119 179.500,333.646 180.600 C 331.762 184.977,330.543 186.759,326.849 190.531 C 323.242 194.214,317.859 198.249,313.363 200.640 C 312.462 201.119,311.278 201.936,310.732 202.455 C 310.185 202.975,308.606 204.374,307.223 205.564 C 304.029 208.313,303.673 209.145,304.096 212.884 C 304.278 214.488,304.564 217.870,304.732 220.400 C 304.903 222.963,305.281 225.443,305.587 226.000 C 306.476 227.620,306.429 304.272,305.538 306.800 C 305.189 307.790,304.784 310.138,304.637 312.017 C 304.491 313.896,304.108 316.310,303.786 317.380 C 303.464 318.451,303.194 320.154,303.186 321.164 C 303.178 322.174,302.914 323.450,302.600 324.000 C 302.286 324.550,302.022 325.775,302.014 326.723 C 301.998 328.694,301.274 331.958,300.687 332.707 C 300.469 332.986,300.150 333.886,299.978 334.707 C 299.807 335.528,299.313 337.190,298.881 338.400 C 298.449 339.610,297.772 341.590,297.375 342.800 C 296.979 344.010,296.043 345.874,295.296 346.941 C 294.548 348.009,293.835 349.509,293.710 350.276 C 293.586 351.042,293.240 351.763,292.942 351.878 C 292.644 351.992,292.400 352.297,292.400 352.556 C 292.400 355.578,279.564 367.200,276.227 367.200 C 275.936 367.200,275.474 367.470,275.200 367.800 C 274.926 368.130,274.139 368.401,273.451 368.403 C 264.509 368.423,262.400 369.971,262.400 376.514 C 262.400 379.734,262.218 381.688,261.840 382.540 C 261.531 383.233,261.093 384.378,260.866 385.083 C 257.400 395.858,246.379 391.810,245.603 379.477 C 245.368 375.753,245.296 375.506,244.178 374.592 L 243.000 373.629 192.879 373.614 L 142.758 373.600 141.185 374.500 C 140.158 375.088,139.408 375.908,139.023 376.866 C 138.699 377.672,138.246 378.448,138.017 378.590 C 137.788 378.731,137.600 379.964,137.600 381.330 C 137.600 384.298,136.682 386.264,134.250 388.504 C 130.854 391.631,128.817 389.734,128.777 383.406 C 128.745 378.208,128.297 377.180,125.800 376.576 C 119.945 375.159,118.051 374.794,116.576 374.797 C 115.684 374.798,114.604 374.536,114.176 374.213 C 113.749 373.890,112.587 373.620,111.594 373.613 C 110.433 373.605,109.147 373.243,107.994 372.601 C 107.007 372.052,104.940 370.968,103.400 370.194 C 98.048 367.501,90.538 359.737,88.805 355.105 C 88.344 353.874,87.639 352.446,87.239 351.933 C 85.950 350.283,84.662 347.450,84.359 345.600 C 84.035 343.626,82.604 339.052,81.925 337.822 C 81.689 337.393,81.403 335.863,81.291 334.422 C 81.179 332.980,80.842 331.445,80.543 331.011 C 79.738 329.842,79.742 284.870,80.547 283.280 C 80.856 282.671,81.192 280.283,81.318 277.800 C 81.441 275.380,81.911 271.780,82.362 269.800 C 82.813 267.820,83.187 265.423,83.191 264.474 C 83.196 263.524,83.424 262.354,83.698 261.874 C 83.972 261.393,84.306 259.290,84.440 257.200 C 84.657 253.814,85.172 251.378,86.978 245.200 C 88.325 240.594,88.776 238.817,89.199 236.444 C 89.449 235.039,89.888 233.509,90.174 233.044 C 90.460 232.580,91.102 230.670,91.601 228.800 C 92.100 226.930,92.838 224.383,93.240 223.139 C 94.863 218.124,94.259 212.411,91.930 210.747 C 90.704 209.871,89.616 209.541,84.210 208.405 C 83.116 208.175,81.198 207.377,79.947 206.633 C 78.697 205.888,76.622 204.977,75.337 204.610 C 74.052 204.242,72.370 203.442,71.600 202.833 C 70.160 201.693,67.383 200.331,65.579 199.880 C 65.017 199.739,63.937 199.010,63.179 198.258 C 62.420 197.507,61.172 196.514,60.403 196.052 C 58.845 195.114,55.396 192.120,53.465 190.030 C 52.769 189.277,51.459 187.927,50.553 187.030 C 49.647 186.134,48.793 185.035,48.655 184.590 C 48.516 184.144,47.811 183.154,47.088 182.390 C 45.185 180.380,44.539 179.213,44.208 177.191 C 44.047 176.206,43.589 174.770,43.192 174.000 C 40.830 169.427,40.890 161.524,43.354 152.680 C 43.709 151.405,44.006 149.785,44.014 149.080 C 44.021 148.376,44.375 147.080,44.800 146.200 C 45.225 145.320,45.579 144.397,45.586 144.150 C 45.594 143.902,46.202 142.372,46.938 140.750 C 47.673 139.127,48.393 137.319,48.537 136.731 C 48.682 136.143,49.410 134.862,50.156 133.885 C 50.901 132.908,51.637 131.713,51.791 131.229 C 52.200 129.939,55.219 124.800,55.567 124.800 C 55.730 124.800,56.476 123.949,57.223 122.908 C 57.971 121.867,59.171 120.499,59.891 119.866 C 60.611 119.234,61.200 118.474,61.200 118.176 C 61.200 117.348,71.526 106.920,73.479 105.775 C 74.425 105.220,75.200 104.611,75.200 104.422 C 75.200 104.233,76.221 103.400,77.468 102.572 C 81.084 100.172,84.399 96.586,84.407 95.065 C 84.411 94.369,84.974 92.810,85.658 91.600 C 86.342 90.390,87.160 88.909,87.476 88.308 C 87.792 87.707,88.219 87.112,88.425 86.984 C 88.631 86.857,88.800 86.373,88.800 85.908 C 88.800 85.008,91.029 80.153,91.606 79.796 C 91.795 79.679,92.494 78.433,93.158 77.026 C 93.823 75.619,94.599 74.317,94.884 74.134 C 95.387 73.808,264.760 73.263,279.720 73.538 L 287.239 73.677 288.591 74.938 M132.400 105.400 C 131.850 105.714,131.092 105.978,130.716 105.986 C 129.915 106.002,124.800 111.012,124.800 111.780 C 124.800 112.067,124.530 112.526,124.200 112.800 C 121.970 114.651,126.726 125.200,129.791 125.200 C 130.022 125.200,130.884 125.560,131.704 126.000 C 133.439 126.930,136.268 127.048,137.423 126.239 C 137.863 125.931,138.963 125.479,139.867 125.236 C 144.424 124.009,147.413 115.460,144.703 111.400 C 142.055 107.433,141.144 106.403,140.091 106.190 C 139.491 106.068,138.490 105.705,137.868 105.384 C 136.437 104.646,133.704 104.654,132.400 105.400 M228.224 105.413 C 227.796 105.736,227.130 106.000,226.742 106.000 C 225.534 106.000,222.047 109.540,221.763 111.056 C 221.623 111.800,221.350 112.507,221.155 112.628 C 220.479 113.045,220.757 118.633,221.544 120.470 C 222.358 122.368,225.190 125.192,226.301 125.214 C 226.686 125.221,227.720 125.575,228.600 126.000 C 230.471 126.904,233.484 127.033,234.611 126.257 C 235.045 125.958,236.061 125.499,236.868 125.236 C 243.533 123.069,243.876 109.751,237.347 106.639 C 236.496 106.234,235.290 105.654,234.668 105.351 C 233.165 104.620,229.222 104.658,228.224 105.413 M156.480 145.680 C 155.254 146.906,156.353 149.599,159.351 152.711 C 163.969 157.504,168.724 158.687,173.694 156.279 C 174.852 155.718,176.860 154.891,178.156 154.440 L 180.512 153.621 182.156 154.904 C 183.060 155.609,184.337 156.713,184.994 157.356 C 189.341 161.616,191.817 161.183,198.700 154.960 C 204.862 149.388,205.490 148.310,203.582 146.584 C 202.101 145.244,196.917 147.339,195.594 149.812 C 194.284 152.260,188.921 154.069,187.620 152.502 C 187.279 152.090,186.516 151.548,185.925 151.297 C 185.334 151.046,184.117 149.886,183.222 148.720 C 182.326 147.554,181.408 146.375,181.181 146.100 C 180.131 144.827,176.752 146.044,174.151 148.630 C 170.283 152.475,167.422 152.600,164.207 149.063 C 161.443 146.021,157.754 144.406,156.480 145.680 M160.829 207.854 C 159.861 209.085,159.782 210.762,160.588 213.000 C 161.016 214.187,161.169 216.689,161.182 222.685 C 161.198 229.801,161.296 231.014,162.000 232.800 C 162.867 235.000,163.047 237.992,162.386 239.226 C 162.012 239.925,161.508 240.000,157.168 240.000 C 151.679 240.000,150.400 240.612,150.400 243.239 C 150.400 245.664,152.024 246.636,156.527 246.905 C 161.730 247.215,163.855 248.218,164.957 250.885 C 166.498 254.615,164.380 257.446,159.739 257.857 C 156.342 258.158,155.276 258.682,154.344 260.509 C 151.403 266.274,158.447 268.773,163.778 263.856 C 165.687 262.095,167.571 261.885,168.765 263.300 C 170.806 265.718,173.600 269.361,173.600 269.605 C 173.600 270.204,178.362 274.468,181.000 276.232 C 186.817 280.120,190.968 280.678,196.054 278.255 C 197.733 277.455,199.494 276.800,199.967 276.800 C 202.459 276.800,205.763 274.004,211.757 266.822 C 214.408 263.647,216.324 262.673,218.220 263.536 C 220.747 264.688,222.000 263.896,222.000 261.149 C 222.000 259.322,221.300 258.000,220.332 258.000 C 220.106 258.000,219.354 257.746,218.660 257.434 C 217.967 257.123,216.744 256.666,215.942 256.417 C 214.222 255.885,213.394 254.072,212.696 249.317 C 212.081 245.119,212.855 244.709,222.660 244.032 C 224.648 243.894,224.839 239.119,222.915 237.674 C 222.137 237.090,218.424 237.307,216.470 238.049 C 214.720 238.715,208.669 239.654,207.700 239.411 C 207.130 239.268,205.992 237.961,204.635 235.892 C 201.621 231.297,194.116 223.941,190.519 222.056 C 189.192 221.361,184.567 218.050,181.663 215.717 C 180.488 214.773,179.318 213.999,179.063 213.998 C 178.590 213.996,175.602 212.518,170.600 209.812 C 165.041 206.805,162.115 206.219,160.829 207.854 M177.600 220.600 C 178.695 221.370,179.667 222.000,179.759 222.000 C 179.851 222.000,181.157 222.806,182.663 223.791 C 186.559 226.340,186.789 226.500,188.013 227.500 C 188.620 227.995,189.270 228.402,189.458 228.404 C 189.864 228.408,196.526 234.794,198.216 236.800 C 200.234 239.195,202.869 243.291,204.050 245.871 C 204.672 247.229,205.366 248.455,205.591 248.594 C 205.816 248.733,206.000 249.337,206.000 249.935 C 206.000 250.533,206.240 251.377,206.534 251.811 C 208.918 255.335,208.130 262.094,204.899 265.834 C 203.131 267.881,200.827 267.006,200.201 264.051 C 199.923 262.742,198.766 260.424,197.779 259.200 C 197.512 258.870,197.157 258.150,196.989 257.600 C 196.689 256.620,195.951 255.404,193.710 252.200 C 193.094 251.320,192.359 250.150,192.076 249.600 C 190.729 246.985,190.174 246.072,188.940 244.449 C 188.208 243.486,187.131 241.686,186.546 240.449 C 185.961 239.212,185.027 237.480,184.470 236.600 C 183.913 235.720,182.952 234.042,182.335 232.870 C 181.717 231.699,180.579 230.002,179.806 229.098 C 179.033 228.195,178.400 227.065,178.400 226.588 C 178.400 226.111,177.815 224.958,177.100 224.026 C 174.467 220.595,174.018 219.894,174.230 219.551 C 174.635 218.895,175.604 219.197,177.600 220.600 M172.800 232.032 C 173.570 233.479,174.547 235.279,174.970 236.032 C 175.394 236.784,176.302 238.480,176.989 239.800 C 177.676 241.120,178.769 242.991,179.419 243.957 C 180.069 244.924,180.818 246.094,181.085 246.557 C 181.352 247.021,181.764 247.670,182.000 248.000 C 182.577 248.807,183.431 250.341,184.114 251.800 C 184.423 252.460,184.974 253.247,185.338 253.549 C 185.702 253.851,186.000 254.310,186.000 254.569 C 186.000 254.828,186.990 256.536,188.200 258.364 C 189.410 260.193,190.400 261.769,190.400 261.866 C 190.400 262.632,192.176 265.627,193.208 266.600 C 197.052 270.225,194.536 272.938,188.125 272.081 C 183.215 271.424,176.800 266.449,176.800 263.298 C 176.800 263.046,176.565 262.696,176.278 262.520 C 175.433 262.003,174.130 259.132,173.580 256.575 C 173.298 255.269,172.828 253.714,172.534 253.120 C 172.240 252.526,172.000 251.730,172.000 251.351 C 172.000 250.973,171.760 250.379,171.466 250.031 C 170.853 249.307,170.000 244.896,170.000 242.454 C 170.000 241.545,169.712 239.135,169.360 237.100 C 168.017 229.328,169.892 226.565,172.800 232.032 M308.283 346.043 C 314.478 348.869,312.457 354.125,304.958 354.692 C 299.942 355.071,298.656 353.913,301.000 351.127 C 301.550 350.473,302.000 349.525,302.000 349.020 C 302.000 348.514,302.469 347.262,303.042 346.237 C 304.220 344.129,304.100 344.134,308.283 346.043 " stroke="none" fill="#141211" fill-rule="evenodd"></path><path id="path1" d="M0.000 200.000 L 0.000 400.000 200.000 400.000 L 400.000 400.000 400.000 200.000 L 400.000 0.000 200.000 0.000 L 0.000 0.000 0.000 200.000 M117.680 9.249 C 118.846 9.495,121.027 10.440,122.528 11.349 C 124.028 12.257,125.811 13.306,126.491 13.680 C 127.170 14.055,128.373 14.976,129.163 15.728 C 129.953 16.481,130.890 17.254,131.244 17.448 C 131.975 17.847,135.536 20.985,139.513 24.733 C 144.945 29.852,148.334 31.535,151.904 30.884 C 167.707 28.001,206.062 27.866,220.945 30.641 C 223.775 31.168,226.869 31.600,227.821 31.600 C 228.774 31.600,229.655 31.766,229.781 31.969 C 229.906 32.172,230.592 32.462,231.305 32.612 C 232.017 32.762,233.548 33.508,234.708 34.269 C 238.349 36.660,240.841 36.249,244.925 32.582 C 245.772 31.822,246.676 31.198,246.933 31.196 C 247.190 31.193,247.967 30.608,248.659 29.896 C 249.352 29.183,251.332 28.000,253.059 27.266 C 254.787 26.532,256.830 25.435,257.600 24.828 C 259.379 23.426,262.587 22.000,263.962 22.000 C 264.545 22.000,265.377 21.753,265.811 21.450 C 269.450 18.915,277.379 17.688,279.618 19.313 C 280.158 19.706,281.230 20.459,282.000 20.987 C 284.624 22.788,288.210 27.387,288.832 29.749 C 289.070 30.657,289.595 32.300,289.997 33.400 C 291.011 36.175,291.362 39.575,291.383 46.800 C 291.408 55.755,292.033 56.573,298.099 55.590 C 306.264 54.266,306.049 54.013,305.908 64.787 L 305.800 73.000 304.632 73.133 C 303.990 73.206,302.730 73.075,301.832 72.842 C 296.437 71.442,295.683 73.727,299.801 79.000 C 302.456 82.401,306.400 89.892,306.400 91.535 C 306.400 95.941,309.635 99.452,320.466 106.800 C 324.141 109.293,330.881 116.743,332.808 120.440 C 333.083 120.968,334.229 122.570,335.354 124.000 C 336.479 125.430,337.837 127.500,338.371 128.600 C 338.906 129.700,339.921 131.590,340.628 132.800 C 341.335 134.010,342.036 135.810,342.186 136.800 C 342.336 137.790,342.698 139.140,342.991 139.800 C 343.284 140.460,343.908 142.530,344.378 144.400 C 344.849 146.270,345.496 148.832,345.817 150.094 C 346.470 152.663,346.622 161.778,346.044 163.772 C 345.848 164.447,345.318 166.170,344.865 167.600 C 344.412 169.030,343.919 171.100,343.769 172.200 C 343.619 173.300,343.271 174.650,342.995 175.200 C 342.719 175.750,342.363 177.190,342.202 178.400 C 341.989 180.013,341.563 181.028,340.609 182.202 C 339.893 183.083,338.737 185.024,338.039 186.516 C 337.341 188.008,336.043 189.979,335.154 190.895 C 334.265 191.811,333.273 193.073,332.949 193.698 C 332.626 194.324,331.837 195.154,331.196 195.544 C 330.555 195.934,329.288 197.096,328.381 198.126 C 327.474 199.157,326.522 200.002,326.266 200.004 C 326.010 200.007,325.185 200.641,324.433 201.415 C 323.682 202.189,322.273 203.173,321.304 203.601 C 319.107 204.573,315.600 206.824,315.600 207.262 C 315.600 207.442,315.000 207.840,314.267 208.146 C 311.284 209.393,310.109 217.901,312.045 224.243 C 312.254 224.927,312.588 228.257,312.789 231.643 C 312.989 235.029,313.440 240.770,313.791 244.400 C 315.223 259.214,315.629 270.330,315.018 278.000 C 314.063 289.981,313.536 295.525,313.217 296.950 C 313.013 297.858,312.746 300.568,312.623 302.974 C 312.500 305.379,312.230 307.899,312.025 308.574 C 311.819 309.248,311.446 312.399,311.196 315.576 C 310.933 318.921,310.501 321.817,310.171 322.457 C 309.857 323.064,309.600 323.974,309.599 324.480 C 309.599 324.986,308.959 327.290,308.177 329.600 C 307.395 331.910,306.655 334.112,306.532 334.494 C 306.170 335.623,306.740 337.127,307.638 337.412 C 308.696 337.748,311.714 339.774,312.415 340.619 C 312.707 340.970,313.634 341.609,314.473 342.037 C 315.313 342.466,316.003 342.948,316.006 343.108 C 316.010 343.269,316.903 344.373,317.991 345.563 C 321.305 349.184,321.140 351.856,317.352 355.969 C 313.986 359.623,312.911 359.961,304.337 360.064 C 296.203 360.161,295.537 360.321,293.184 362.743 C 285.827 370.316,281.083 373.480,276.950 373.572 C 271.881 373.685,268.866 377.212,268.817 383.089 C 268.808 384.238,268.461 385.948,268.047 386.889 C 267.632 387.830,266.976 389.627,266.588 390.881 C 265.244 395.230,263.403 396.019,254.488 396.073 C 244.314 396.134,240.680 393.488,240.006 385.529 C 239.863 383.840,239.512 382.175,239.224 381.829 C 238.755 381.264,234.042 381.200,192.565 381.200 L 146.428 381.200 145.014 382.441 C 144.236 383.124,143.600 383.984,143.600 384.352 C 143.600 384.721,143.347 385.383,143.037 385.825 C 142.728 386.267,142.351 387.454,142.200 388.462 C 141.963 390.043,141.545 390.673,139.171 393.029 L 136.416 395.762 132.708 395.915 C 126.670 396.162,123.343 393.631,123.226 388.699 C 123.212 388.093,122.840 386.925,122.400 386.104 C 121.960 385.284,121.600 384.394,121.600 384.129 C 121.600 383.287,119.879 382.400,118.246 382.400 C 116.590 382.400,112.897 381.460,111.200 380.606 C 110.650 380.330,109.508 379.880,108.661 379.608 C 107.815 379.335,106.645 378.863,106.061 378.559 C 105.478 378.254,104.707 378.004,104.349 378.002 C 103.991 378.001,103.489 377.748,103.233 377.439 C 102.977 377.131,102.291 376.759,101.708 376.613 C 100.680 376.355,98.748 375.158,97.671 374.113 C 97.381 373.831,96.931 373.597,96.671 373.593 C 95.243 373.571,85.503 363.108,83.688 359.646 C 82.973 358.281,81.905 356.407,81.316 355.482 C 80.727 354.557,79.742 352.311,79.126 350.491 C 78.511 348.672,77.763 346.782,77.465 346.291 C 76.653 344.957,75.705 341.046,75.212 337.000 C 74.970 335.020,74.592 332.680,74.370 331.800 C 72.883 325.896,72.209 305.332,73.206 296.284 C 74.273 286.607,75.027 277.857,75.525 269.400 C 75.720 266.100,76.086 262.893,76.339 262.274 C 76.593 261.655,76.806 260.575,76.814 259.874 C 76.822 259.173,77.086 258.150,77.400 257.600 C 77.714 257.050,77.978 256.134,77.986 255.564 C 77.994 254.994,78.392 253.104,78.872 251.364 C 79.351 249.624,79.815 246.906,79.902 245.323 C 80.004 243.490,80.268 242.276,80.631 241.974 C 80.944 241.715,81.204 241.029,81.209 240.451 C 81.215 239.873,81.664 238.320,82.208 237.000 C 82.751 235.680,83.197 234.396,83.198 234.146 C 83.199 233.896,83.469 233.176,83.798 232.546 C 84.126 231.916,84.396 230.667,84.398 229.770 C 84.400 228.083,86.038 222.719,86.848 221.742 C 88.935 219.228,85.252 214.569,80.800 214.091 C 79.810 213.985,78.730 213.669,78.400 213.389 C 78.070 213.109,77.129 212.697,76.310 212.475 C 75.490 212.252,74.022 211.532,73.047 210.874 C 72.073 210.216,70.880 209.552,70.398 209.399 C 69.084 208.982,65.612 207.307,63.800 206.216 C 62.920 205.687,61.480 204.858,60.600 204.376 C 59.720 203.893,58.167 202.756,57.149 201.849 C 56.131 200.942,54.421 199.571,53.349 198.803 C 50.982 197.105,44.123 190.217,43.806 189.219 C 43.681 188.824,43.024 187.881,42.347 187.122 C 40.577 185.140,38.504 181.455,36.837 177.326 C 35.930 175.078,35.532 153.638,36.358 151.519 C 36.555 151.013,36.950 149.790,37.235 148.800 C 37.520 147.810,38.079 146.373,38.477 145.606 C 38.874 144.839,39.200 143.952,39.200 143.634 C 39.200 141.980,42.086 134.949,43.890 132.209 C 44.610 131.114,45.200 130.033,45.200 129.806 C 45.200 129.147,47.207 125.532,48.455 123.942 C 49.085 123.141,49.600 122.297,49.600 122.068 C 49.600 121.839,50.304 120.875,51.165 119.926 C 52.026 118.977,54.302 116.055,56.222 113.434 C 61.246 106.576,64.263 103.581,70.000 99.753 C 74.166 96.973,74.647 96.594,76.276 94.800 C 77.872 93.042,80.000 88.752,80.000 87.292 C 80.000 86.889,80.201 86.359,80.446 86.114 C 81.199 85.361,84.400 79.267,84.400 78.588 C 84.400 78.432,85.074 77.201,85.897 75.852 C 88.333 71.862,88.769 71.087,89.605 69.267 C 90.483 67.352,90.631 64.493,89.987 61.877 C 89.023 57.962,90.667 55.820,95.100 55.219 C 96.514 55.027,97.517 54.655,97.851 54.198 C 98.540 53.256,98.177 44.054,97.366 41.892 C 96.586 39.812,96.607 32.835,97.400 30.938 C 97.730 30.149,98.000 28.312,98.000 26.857 C 98.000 21.800,102.553 14.563,108.317 10.459 C 110.421 8.961,114.083 8.487,117.680 9.249 M112.400 16.740 C 110.446 17.014,106.400 20.774,106.400 22.316 C 106.400 22.624,106.145 23.354,105.834 23.938 C 102.537 30.126,102.516 42.627,105.792 49.200 C 106.066 49.750,106.391 50.990,106.514 51.955 C 106.638 52.920,106.990 53.961,107.296 54.268 C 107.768 54.739,119.158 54.846,181.227 54.961 C 221.582 55.036,254.960 55.134,255.400 55.177 C 259.538 55.590,261.133 54.867,261.133 52.578 C 261.133 51.579,261.306 50.546,261.516 50.281 C 261.727 50.017,262.022 48.948,262.173 47.906 C 262.431 46.122,263.078 45.069,266.344 41.118 C 271.525 34.852,274.930 34.737,272.005 40.927 C 271.317 42.384,270.652 44.205,270.527 44.974 C 270.402 45.744,269.683 47.093,268.930 47.973 C 267.343 49.828,266.211 52.793,266.560 54.185 L 266.803 55.150 275.209 55.124 C 280.957 55.106,283.708 54.956,283.908 54.649 C 284.299 54.048,284.002 35.910,283.593 35.400 C 283.416 35.180,283.145 34.280,282.991 33.400 C 282.837 32.520,282.505 31.620,282.254 31.400 C 282.003 31.180,281.168 30.063,280.399 28.918 C 277.692 24.888,271.757 25.350,261.759 30.372 C 255.592 33.469,253.026 34.853,252.369 35.438 C 252.021 35.747,251.571 36.001,251.369 36.002 C 251.166 36.003,250.384 36.588,249.631 37.302 C 248.878 38.016,247.320 39.140,246.170 39.800 C 245.019 40.460,243.205 41.622,242.139 42.381 C 240.111 43.826,237.100 44.333,236.482 43.333 C 235.879 42.357,233.054 40.400,232.245 40.398 C 231.780 40.396,230.884 40.126,230.254 39.798 C 229.624 39.469,228.841 39.200,228.515 39.200 C 228.188 39.200,227.354 38.955,226.660 38.655 C 225.119 37.989,221.050 37.200,219.156 37.200 C 218.388 37.200,217.535 36.975,217.260 36.700 C 216.564 36.004,163.471 35.756,160.800 36.437 C 157.914 37.172,146.326 37.600,145.600 36.998 C 145.270 36.725,144.337 36.288,143.526 36.028 C 142.715 35.768,141.995 35.422,141.926 35.259 C 141.857 35.097,140.855 34.356,139.700 33.614 C 138.545 32.872,137.600 32.140,137.600 31.987 C 137.600 31.834,136.879 31.209,135.998 30.599 C 135.117 29.988,134.028 28.893,133.578 28.165 C 133.128 27.437,132.386 26.722,131.928 26.577 C 131.470 26.432,129.495 24.816,127.539 22.986 C 122.386 18.165,117.276 16.057,112.400 16.740 M117.375 31.661 C 119.217 32.501,123.600 39.696,123.600 41.880 C 123.600 45.768,117.462 47.121,115.578 43.649 C 115.145 42.852,114.625 41.930,114.421 41.600 C 114.216 41.270,113.701 40.190,113.276 39.200 C 112.850 38.210,112.209 36.719,111.851 35.886 C 110.397 32.506,113.694 29.984,117.375 31.661 M183.800 73.600 C 135.180 73.710,95.168 73.950,94.884 74.134 C 94.599 74.317,93.823 75.619,93.158 77.026 C 92.494 78.433,91.795 79.679,91.606 79.796 C 91.029 80.153,88.800 85.008,88.800 85.908 C 88.800 86.373,88.631 86.857,88.425 86.984 C 88.219 87.112,87.792 87.707,87.476 88.308 C 87.160 88.909,86.342 90.390,85.658 91.600 C 84.974 92.810,84.411 94.369,84.407 95.065 C 84.399 96.586,81.084 100.172,77.468 102.572 C 76.221 103.400,75.200 104.233,75.200 104.422 C 75.200 104.611,74.425 105.220,73.479 105.775 C 71.526 106.920,61.200 117.348,61.200 118.176 C 61.200 118.474,60.611 119.234,59.891 119.866 C 59.171 120.499,57.971 121.867,57.223 122.908 C 56.476 123.949,55.730 124.800,55.567 124.800 C 55.219 124.800,52.200 129.939,51.791 131.229 C 51.637 131.713,50.901 132.908,50.156 133.885 C 49.410 134.862,48.682 136.143,48.537 136.731 C 48.393 137.319,47.673 139.127,46.938 140.750 C 46.202 142.372,45.594 143.902,45.586 144.150 C 45.579 144.397,45.225 145.320,44.800 146.200 C 44.375 147.080,44.021 148.376,44.014 149.080 C 44.006 149.785,43.709 151.405,43.354 152.680 C 40.890 161.524,40.830 169.427,43.192 174.000 C 43.589 174.770,44.047 176.206,44.208 177.191 C 44.539 179.213,45.185 180.380,47.088 182.390 C 47.811 183.154,48.516 184.144,48.655 184.590 C 48.793 185.035,49.647 186.134,50.553 187.030 C 51.459 187.927,52.769 189.277,53.465 190.030 C 55.396 192.120,58.845 195.114,60.403 196.052 C 61.172 196.514,62.420 197.507,63.179 198.258 C 63.937 199.010,65.017 199.739,65.579 199.880 C 67.383 200.331,70.160 201.693,71.600 202.833 C 72.370 203.442,74.052 204.242,75.337 204.610 C 76.622 204.977,78.697 205.888,79.947 206.633 C 81.198 207.377,83.116 208.175,84.210 208.405 C 89.616 209.541,90.704 209.871,91.930 210.747 C 94.259 212.411,94.863 218.124,93.240 223.139 C 92.838 224.383,92.100 226.930,91.601 228.800 C 91.102 230.670,90.460 232.580,90.174 233.044 C 89.888 233.509,89.449 235.039,89.199 236.444 C 88.776 238.817,88.325 240.594,86.978 245.200 C 85.172 251.378,84.657 253.814,84.440 257.200 C 84.306 259.290,83.972 261.393,83.698 261.874 C 83.424 262.354,83.196 263.524,83.191 264.474 C 83.187 265.423,82.813 267.820,82.362 269.800 C 81.911 271.780,81.441 275.380,81.318 277.800 C 81.192 280.283,80.856 282.671,80.547 283.280 C 79.742 284.870,79.738 329.842,80.543 331.011 C 80.842 331.445,81.179 332.980,81.291 334.422 C 81.403 335.863,81.689 337.393,81.925 337.822 C 82.604 339.052,84.035 343.626,84.359 345.600 C 84.662 347.450,85.950 350.283,87.239 351.933 C 87.639 352.446,88.344 353.874,88.805 355.105 C 90.538 359.737,98.048 367.501,103.400 370.194 C 104.940 370.968,107.007 372.052,107.994 372.601 C 109.147 373.243,110.433 373.605,111.594 373.613 C 112.587 373.620,113.749 373.890,114.176 374.213 C 114.604 374.536,115.684 374.798,116.576 374.797 C 118.051 374.794,119.945 375.159,125.800 376.576 C 128.297 377.180,128.745 378.208,128.777 383.406 C 128.817 389.734,130.854 391.631,134.250 388.504 C 136.682 386.264,137.600 384.298,137.600 381.330 C 137.600 379.964,137.788 378.731,138.017 378.590 C 138.246 378.448,138.699 377.672,139.023 376.866 C 139.408 375.908,140.158 375.088,141.185 374.500 L 142.758 373.600 192.879 373.614 L 243.000 373.629 244.178 374.592 C 245.296 375.506,245.368 375.753,245.603 379.477 C 246.379 391.810,257.400 395.858,260.866 385.083 C 261.093 384.378,261.531 383.233,261.840 382.540 C 262.218 381.688,262.400 379.734,262.400 376.514 C 262.400 369.971,264.509 368.423,273.451 368.403 C 274.139 368.401,274.926 368.130,275.200 367.800 C 275.474 367.470,275.936 367.200,276.227 367.200 C 279.564 367.200,292.400 355.578,292.400 352.556 C 292.400 352.297,292.644 351.992,292.942 351.878 C 293.240 351.763,293.586 351.042,293.710 350.276 C 293.835 349.509,294.548 348.009,295.296 346.941 C 296.043 345.874,296.979 344.010,297.375 342.800 C 297.772 341.590,298.449 339.610,298.881 338.400 C 299.313 337.190,299.807 335.528,299.978 334.707 C 300.150 333.886,300.469 332.986,300.687 332.707 C 301.274 331.958,301.998 328.694,302.014 326.723 C 302.022 325.775,302.286 324.550,302.600 324.000 C 302.914 323.450,303.178 322.174,303.186 321.164 C 303.194 320.154,303.464 318.451,303.786 317.380 C 304.108 316.310,304.491 313.896,304.637 312.017 C 304.784 310.138,305.189 307.790,305.538 306.800 C 306.429 304.272,306.476 227.620,305.587 226.000 C 305.281 225.443,304.903 222.963,304.732 220.400 C 304.564 217.870,304.278 214.488,304.096 212.884 C 303.673 209.145,304.029 208.313,307.223 205.564 C 308.606 204.374,310.185 202.975,310.732 202.455 C 311.278 201.936,312.462 201.119,313.363 200.640 C 317.859 198.249,323.242 194.214,326.849 190.531 C 330.543 186.759,331.762 184.977,333.646 180.600 C 334.119 179.500,334.843 178.170,335.254 177.645 C 337.379 174.932,337.675 172.446,337.692 157.200 L 337.708 143.000 336.638 140.614 C 336.049 139.301,335.325 137.951,335.028 137.614 C 334.732 137.276,334.009 135.656,333.422 134.014 C 332.835 132.371,331.774 130.301,331.063 129.414 C 330.352 128.526,329.435 127.269,329.024 126.620 C 326.072 121.958,318.396 113.987,312.725 109.695 C 311.299 108.615,309.787 107.426,309.366 107.051 C 308.029 105.863,304.763 103.566,303.764 103.111 C 303.234 102.869,302.800 102.542,302.800 102.384 C 302.800 102.226,302.253 101.871,301.585 101.594 C 299.738 100.829,299.429 99.904,300.389 98.022 C 301.244 96.346,301.448 94.601,300.835 94.221 C 300.474 93.998,299.819 92.694,297.911 88.400 C 297.374 87.190,296.184 85.334,295.267 84.276 C 294.350 83.217,293.600 82.206,293.600 82.029 C 293.600 81.391,289.914 76.174,288.591 74.938 L 287.239 73.677 279.720 73.538 C 275.584 73.462,232.420 73.490,183.800 73.600 M137.868 105.384 C 138.490 105.705,139.491 106.068,140.091 106.190 C 141.144 106.403,142.055 107.433,144.703 111.400 C 147.413 115.460,144.424 124.009,139.867 125.236 C 138.963 125.479,137.863 125.931,137.423 126.239 C 136.268 127.048,133.439 126.930,131.704 126.000 C 130.884 125.560,130.022 125.200,129.791 125.200 C 126.726 125.200,121.970 114.651,124.200 112.800 C 124.530 112.526,124.800 112.067,124.800 111.780 C 124.800 111.012,129.915 106.002,130.716 105.986 C 131.092 105.978,131.850 105.714,132.400 105.400 C 133.704 104.654,136.437 104.646,137.868 105.384 M234.668 105.351 C 235.290 105.654,236.496 106.234,237.347 106.639 C 243.876 109.751,243.533 123.069,236.868 125.236 C 236.061 125.499,235.045 125.958,234.611 126.257 C 233.484 127.033,230.471 126.904,228.600 126.000 C 227.720 125.575,226.686 125.221,226.301 125.214 C 225.190 125.192,222.358 122.368,221.544 120.470 C 220.757 118.633,220.479 113.045,221.155 112.628 C 221.350 112.507,221.623 111.800,221.763 111.056 C 222.047 109.540,225.534 106.000,226.742 106.000 C 227.130 106.000,227.796 105.736,228.224 105.413 C 229.222 104.658,233.165 104.620,234.668 105.351 M160.397 146.033 C 161.393 146.484,163.093 147.836,164.207 149.063 C 167.422 152.600,170.283 152.475,174.151 148.630 C 176.752 146.044,180.131 144.827,181.181 146.100 C 181.408 146.375,182.326 147.554,183.222 148.720 C 184.117 149.886,185.334 151.046,185.925 151.297 C 186.516 151.548,187.279 152.090,187.620 152.502 C 188.921 154.069,194.284 152.260,195.594 149.812 C 196.917 147.339,202.101 145.244,203.582 146.584 C 205.490 148.310,204.862 149.388,198.700 154.960 C 191.817 161.183,189.341 161.616,184.994 157.356 C 184.337 156.713,183.060 155.609,182.156 154.904 L 180.512 153.621 178.156 154.440 C 176.860 154.891,174.852 155.718,173.694 156.279 C 168.724 158.687,163.969 157.504,159.351 152.711 C 154.361 147.530,154.980 143.576,160.397 146.033 M165.600 207.559 C 166.810 207.965,169.060 208.979,170.600 209.812 C 175.602 212.518,178.590 213.996,179.063 213.998 C 179.318 213.999,180.488 214.773,181.663 215.717 C 184.567 218.050,189.192 221.361,190.519 222.056 C 194.116 223.941,201.621 231.297,204.635 235.892 C 205.992 237.961,207.130 239.268,207.700 239.411 C 208.669 239.654,214.720 238.715,216.470 238.049 C 218.424 237.307,222.137 237.090,222.915 237.674 C 224.839 239.119,224.648 243.894,222.660 244.032 C 212.855 244.709,212.081 245.119,212.696 249.317 C 213.394 254.072,214.222 255.885,215.942 256.417 C 216.744 256.666,217.967 257.123,218.660 257.434 C 219.354 257.746,220.106 258.000,220.332 258.000 C 221.300 258.000,222.000 259.322,222.000 261.149 C 222.000 263.896,220.747 264.688,218.220 263.536 C 216.324 262.673,214.408 263.647,211.757 266.822 C 205.763 274.004,202.459 276.800,199.967 276.800 C 199.494 276.800,197.733 277.455,196.054 278.255 C 190.968 280.678,186.817 280.120,181.000 276.232 C 178.362 274.468,173.600 270.204,173.600 269.605 C 173.600 269.361,170.806 265.718,168.765 263.300 C 167.571 261.885,165.687 262.095,163.778 263.856 C 158.447 268.773,151.403 266.274,154.344 260.509 C 155.276 258.682,156.342 258.158,159.739 257.857 C 164.380 257.446,166.498 254.615,164.957 250.885 C 163.855 248.218,161.730 247.215,156.527 246.905 C 152.024 246.636,150.400 245.664,150.400 243.239 C 150.400 240.612,151.679 240.000,157.168 240.000 C 161.508 240.000,162.012 239.925,162.386 239.226 C 163.047 237.992,162.867 235.000,162.000 232.800 C 161.296 231.014,161.198 229.801,161.182 222.685 C 161.169 216.689,161.016 214.187,160.588 213.000 C 158.840 208.148,160.852 205.964,165.600 207.559 M174.230 219.551 C 174.018 219.894,174.467 220.595,177.100 224.026 C 177.815 224.958,178.400 226.111,178.400 226.588 C 178.400 227.065,179.033 228.195,179.806 229.098 C 180.579 230.002,181.717 231.699,182.335 232.870 C 182.952 234.042,183.913 235.720,184.470 236.600 C 185.027 237.480,185.961 239.212,186.546 240.449 C 187.131 241.686,188.208 243.486,188.940 244.449 C 190.174 246.072,190.729 246.985,192.076 249.600 C 192.359 250.150,193.094 251.320,193.710 252.200 C 195.951 255.404,196.689 256.620,196.989 257.600 C 197.157 258.150,197.512 258.870,197.779 259.200 C 198.766 260.424,199.923 262.742,200.201 264.051 C 200.827 267.006,203.131 267.881,204.899 265.834 C 208.130 262.094,208.918 255.335,206.534 251.811 C 206.240 251.377,206.000 250.533,206.000 249.935 C 206.000 249.337,205.816 248.733,205.591 248.594 C 205.366 248.455,204.672 247.229,204.050 245.871 C 202.869 243.291,200.234 239.195,198.216 236.800 C 196.526 234.794,189.864 228.408,189.458 228.404 C 189.270 228.402,188.620 227.995,188.013 227.500 C 186.789 226.500,186.559 226.340,182.663 223.791 C 181.157 222.806,179.851 222.000,179.759 222.000 C 179.667 222.000,178.695 221.370,177.600 220.600 C 175.604 219.197,174.635 218.895,174.230 219.551 M169.435 229.544 C 168.811 230.554,168.779 233.738,169.360 237.100 C 169.712 239.135,170.000 241.545,170.000 242.454 C 170.000 244.896,170.853 249.307,171.466 250.031 C 171.760 250.379,172.000 250.973,172.000 251.351 C 172.000 251.730,172.240 252.526,172.534 253.120 C 172.828 253.714,173.298 255.269,173.580 256.575 C 174.130 259.132,175.433 262.003,176.278 262.520 C 176.565 262.696,176.800 263.046,176.800 263.298 C 176.800 266.449,183.215 271.424,188.125 272.081 C 194.536 272.938,197.052 270.225,193.208 266.600 C 192.176 265.627,190.400 262.632,190.400 261.866 C 190.400 261.769,189.410 260.193,188.200 258.364 C 186.990 256.536,186.000 254.828,186.000 254.569 C 186.000 254.310,185.702 253.851,185.338 253.549 C 184.974 253.247,184.423 252.460,184.114 251.800 C 183.431 250.341,182.577 248.807,182.000 248.000 C 181.764 247.670,181.352 247.021,181.085 246.557 C 180.818 246.094,180.069 244.924,179.419 243.957 C 178.769 242.991,177.676 241.120,176.989 239.800 C 176.302 238.480,175.394 236.784,174.970 236.032 C 174.547 235.279,173.570 233.479,172.800 232.032 C 171.449 229.492,170.088 228.486,169.435 229.544 M303.042 346.237 C 302.469 347.262,302.000 348.514,302.000 349.020 C 302.000 349.525,301.550 350.473,301.000 351.127 C 298.656 353.913,299.942 355.071,304.958 354.692 C 312.457 354.125,314.478 348.869,308.283 346.043 C 304.100 344.134,304.220 344.129,303.042 346.237 " stroke="none" fill="#fbfbef" fill-rule="evenodd"></path></g></svg>